<svg data-slug-id="azure-applied-ai-services" viewBox="0 0 400 200" xmlns="http://www.w3.org/2000/svg">
<g clip-path="url(#azure-applied-ai-services_clip0_11803_1083)">
<path d="M178.528 140.825C178.528 140.825 162.02 135.12 181.044 120.219C198.199 108.676 218.032 101.801 238.612 100.263L256.164 65.6958C230.786 62.0862 204.926 64.2963 180.517 72.1609C141.793 85.7216 103.099 128.205 129.949 150.322C138.05 153.871 147.031 154.863 155.704 153.168C164.378 151.472 172.336 147.168 178.528 140.825V140.825Z" fill="url(#azure-applied-ai-services_paint0_radial_11803_1083)"/>
<path d="M204.533 107.916V83.8367C204.533 82.576 205.03 81.3668 205.916 80.4753C206.802 79.5838 208.004 79.083 209.256 79.083H212.399C212.855 81.1588 214.056 82.9921 215.772 84.2312C217.489 85.4704 219.599 86.0281 221.699 85.7973C223.799 85.5666 225.741 84.5637 227.151 82.9811C228.561 81.3984 229.341 79.3474 229.341 77.2215C229.341 75.0957 228.561 73.0447 227.151 71.462C225.741 69.8793 223.799 68.8764 221.699 68.6457C219.599 68.415 217.489 68.9727 215.772 70.2118C214.056 71.451 212.855 73.2843 212.399 75.3601H209.207C206.974 75.3627 204.833 76.2566 203.254 77.8457C201.675 79.4349 200.786 81.5894 200.784 83.8367V98.9386H194.817C194.361 96.8628 193.16 95.0295 191.443 93.7904C189.727 92.5512 187.616 91.9935 185.517 92.2242C183.417 92.4549 181.475 93.4578 180.065 95.0405C178.655 96.6232 177.875 98.6742 177.875 100.8C177.875 102.926 178.655 104.977 180.065 106.56C181.475 108.142 183.417 109.145 185.517 109.376C187.616 109.607 189.727 109.049 191.443 107.81C193.16 106.571 194.361 104.737 194.817 102.662H200.784V109.277C201.997 108.806 203.23 108.356 204.533 107.916ZM220.762 72.3077C221.728 72.3057 222.673 72.5922 223.477 73.1309C224.282 73.6697 224.909 74.4364 225.28 75.3341C225.651 76.2318 225.749 77.2202 225.562 78.174C225.375 79.1279 224.911 80.0044 224.228 80.6926C223.546 81.3808 222.676 81.8498 221.728 82.0402C220.781 82.2306 219.799 82.1339 218.906 81.7623C218.013 81.3907 217.25 80.7609 216.713 79.9526C216.176 79.1443 215.889 78.1938 215.889 77.2215C215.889 75.9286 216.395 74.6878 217.298 73.768C218.201 72.8481 219.428 72.3235 220.712 72.3077H220.762ZM186.454 105.704C185.488 105.704 184.543 105.415 183.74 104.875C182.937 104.335 182.311 103.567 181.942 102.668C181.573 101.77 181.476 100.781 181.666 99.8277C181.855 98.8742 182.321 97.9987 183.005 97.3119C183.689 96.6251 184.559 96.1579 185.507 95.9694C186.455 95.7809 187.437 95.8796 188.329 96.2531C189.221 96.6266 189.983 97.2579 190.518 98.0673C191.054 98.8767 191.338 99.8278 191.336 100.8C191.334 102.102 190.818 103.349 189.903 104.268C188.987 105.188 187.747 105.704 186.454 105.704Z" fill="url(#azure-applied-ai-services_paint1_radial_11803_1083)"/>
<path d="M154.054 112.017H127.9C127.105 113.258 126.389 114.499 125.722 115.74H154.054C156.287 115.737 158.428 114.843 160.007 113.254C161.586 111.665 162.474 109.511 162.477 107.263V105.192C164.542 104.733 166.367 103.523 167.6 101.794C168.833 100.064 169.388 97.9376 169.159 95.8216C168.93 93.7057 167.932 91.7494 166.357 90.3282C164.783 88.9071 162.742 88.1211 160.627 88.1211C158.512 88.1211 156.472 88.9071 154.897 90.3282C153.323 91.7494 152.325 93.7057 152.096 95.8216C151.867 97.9376 152.422 100.064 153.655 101.794C154.888 103.523 156.712 104.733 158.778 105.192V107.253C158.779 107.878 158.658 108.498 158.421 109.076C158.184 109.653 157.837 110.179 157.398 110.621C156.959 111.064 156.438 111.415 155.864 111.654C155.29 111.894 154.675 112.017 154.054 112.017ZM155.745 96.7851C155.745 95.8132 156.031 94.8632 156.568 94.0551C157.104 93.247 157.867 92.6172 158.759 92.2453C159.651 91.8733 160.633 91.776 161.58 91.9656C162.527 92.1552 163.397 92.6232 164.08 93.3105C164.763 93.9977 165.228 94.8732 165.416 95.8264C165.605 96.7796 165.508 97.7676 165.138 98.6655C164.769 99.5634 164.143 100.331 163.34 100.871C162.537 101.411 161.593 101.699 160.627 101.699C159.332 101.696 158.09 101.176 157.174 100.253C156.259 99.3301 155.745 98.0792 155.745 96.7751V96.7851Z" fill="url(#azure-applied-ai-services_paint2_radial_11803_1083)"/>
<path d="M171.904 132.642H163.829C163.373 130.563 162.171 128.727 160.452 127.486C158.734 126.245 156.621 125.686 154.518 125.917C152.416 126.148 150.472 127.152 149.06 128.736C147.647 130.321 146.866 132.375 146.866 134.503C146.866 136.632 147.647 138.685 149.06 140.27C150.472 141.854 152.416 142.858 154.518 143.089C156.621 143.32 158.734 142.761 160.452 141.52C162.171 140.279 163.373 138.443 163.829 136.364H172.779C172.118 135.242 171.813 133.943 171.904 132.642V132.642ZM155.456 139.417C154.49 139.417 153.546 139.129 152.743 138.589C151.94 138.049 151.314 137.281 150.945 136.383C150.575 135.486 150.478 134.498 150.667 133.544C150.855 132.591 151.32 131.716 152.003 131.028C152.686 130.341 153.556 129.873 154.503 129.684C155.45 129.494 156.432 129.591 157.324 129.963C158.216 130.335 158.979 130.965 159.515 131.773C160.052 132.581 160.338 133.531 160.338 134.503C160.338 135.806 159.824 137.056 158.908 137.978C157.993 138.899 156.751 139.417 155.456 139.417Z" fill="url(#azure-applied-ai-services_paint3_radial_11803_1083)"/>
<path d="M129.949 150.325C192.271 188.454 252.733 175.985 298.915 70.1015C299.641 68.422 300.01 66.6086 299.999 64.7773V33.3126C299.999 32.4358 299.654 31.5947 299.039 30.9738C298.423 30.3528 297.589 30.0026 296.718 30H266.755C265.421 30.0618 264.133 30.5039 263.039 31.2747C261.946 32.0455 261.093 33.1132 260.579 34.3534C229.453 122.853 154.691 161.323 129.949 150.325Z" fill="url(#azure-applied-ai-services_paint4_linear_11803_1083)"/>
</g>
<defs>
<radialGradient id="azure-applied-ai-services_paint0_radial_11803_1083" cx="0" cy="0" r="1" gradientUnits="userSpaceOnUse" gradientTransform="translate(152.052 56.5542) rotate(59.9799) scale(97.1609 136.367)">
<stop stop-color="#9CEBFF"/>
<stop offset="0.667" stop-color="#50E6FF"/>
<stop offset="1" stop-color="#32BEDD"/>
</radialGradient>
<radialGradient id="azure-applied-ai-services_paint1_radial_11803_1083" cx="0" cy="0" r="1" gradientUnits="userSpaceOnUse" gradientTransform="translate(139.715 51.0109) scale(183.047 184.215)">
<stop stop-color="#E7F9FF"/>
<stop offset="0.277" stop-color="#C3F1FF"/>
<stop offset="0.408" stop-color="#C1F1FF"/>
<stop offset="1" stop-color="#9CEBFF"/>
</radialGradient>
<radialGradient id="azure-applied-ai-services_paint2_radial_11803_1083" cx="0" cy="0" r="1" gradientUnits="userSpaceOnUse" gradientTransform="translate(139.714 51.0091) scale(183.047 184.215)">
<stop stop-color="#E7F9FF"/>
<stop offset="0.277" stop-color="#C3F1FF"/>
<stop offset="0.408" stop-color="#C1F1FF"/>
<stop offset="1" stop-color="#9CEBFF"/>
</radialGradient>
<radialGradient id="azure-applied-ai-services_paint3_radial_11803_1083" cx="0" cy="0" r="1" gradientUnits="userSpaceOnUse" gradientTransform="translate(139.714 51.0074) scale(183.047 184.215)">
<stop stop-color="#E7F9FF"/>
<stop offset="0.277" stop-color="#C3F1FF"/>
<stop offset="0.408" stop-color="#C1F1FF"/>
<stop offset="1" stop-color="#9CEBFF"/>
</radialGradient>
<linearGradient id="azure-applied-ai-services_paint4_linear_11803_1083" x1="271.658" y1="55.9904" x2="157.688" y2="182.961" gradientUnits="userSpaceOnUse">
<stop stop-color="#0078D4"/>
<stop offset="0.712" stop-color="#005BA1"/>
<stop offset="1" stop-color="#003067"/>
</linearGradient>
<clipPath id="azure-applied-ai-services_clip0_11803_1083">
<rect width="179" height="140" fill="white" transform="translate(121 30)"/>
</clipPath>
</defs>
</svg>
