<svg width="60" height="60" fill="none" xmlns="http://www.w3.org/2000/svg"><path d="M43.504 41.418l4.482 4.485-4.482 4.485v-8.97z" fill="#50E6FF"/><path d="M16.57 18.603l-4.482-4.485 4.482-4.485v8.97z" fill="#0078D4"/><path d="M14.161 59.937h15.876c7.817 0 14.161-6.348 14.161-14.17 0-7.823-6.344-14.171-14.161-14.171H14.161C6.344 31.586 0 37.934 0 45.756c0 7.833 6.344 14.181 14.161 14.181z" fill="#50E6FF"/><path d="M25.187 45.49a3.107 3.107 0 01-3.346 3.349 3.107 3.107 0 01.505-6.19c1.505.126 2.725 1.336 2.841 2.842zM15.718 45.49a3.107 3.107 0 01-3.345 3.349 3.107 3.107 0 01.505-6.19c1.504.126 2.724 1.336 2.84 2.842zM34.656 45.49a3.107 3.107 0 01-3.346 3.349 3.107 3.107 0 01.505-6.19c1.505.126 2.725 1.336 2.84 2.842z" fill="#1A1A1F"/><path d="M29.87 28.341h15.875c7.817 0 14.161-6.348 14.161-14.17C59.906 6.348 53.572 0 45.745 0H29.869c-7.817 0-14.161 6.348-14.161 14.17 0 7.834 6.344 14.171 14.161 14.171z" fill="#0078D4"/><path d="M40.895 13.907a3.107 3.107 0 01-3.346 3.348 3.107 3.107 0 01.505-6.19 3.1 3.1 0 012.84 2.842zM31.426 13.907a3.107 3.107 0 01-3.346 3.348 3.107 3.107 0 01.505-6.19 3.1 3.1 0 012.84 2.842zM50.363 13.907a3.107 3.107 0 01-3.345 3.348 3.107 3.107 0 01.505-6.19 3.1 3.1 0 012.84 2.842z" fill="#50E6FF"/></svg>