<svg data-slug-id="pricing06" viewBox="0 0 49 49" xmlns="http://www.w3.org/2000/svg">
<path d="M39.7492 35.8858H11.7092L9.51855 15.7152H46.8519L39.7492 35.8858Z" fill="#0078D7"/>
<path d="M11.625 8.61365H1.63232V11.9164H9.12258L10.26 22.4988L13.7229 22.0102L11.625 8.61365Z" fill="#0078D7"/>
<path d="M15.4167 46.0964C17.5014 46.0964 19.1913 44.4064 19.1913 42.3217C19.1913 40.2371 17.5014 38.5471 15.4167 38.5471C13.332 38.5471 11.6421 40.2371 11.6421 42.3217C11.6421 44.4064 13.332 46.0964 15.4167 46.0964Z" fill="#0078D7"/>
<path d="M35.9245 46.0964C38.0092 46.0964 39.6991 44.4064 39.6991 42.3217C39.6991 40.2371 38.0092 38.5471 35.9245 38.5471C33.8399 38.5471 32.1499 40.2371 32.1499 42.3217C32.1499 44.4064 33.8399 46.0964 35.9245 46.0964Z" fill="#0078D7"/>
<path d="M30.7592 25.6224C30.279 25.1169 29.487 24.6787 28.3917 24.2743V21.4686C29.2848 21.5697 30.0684 21.8393 30.7592 22.2438V20.2132C30.2453 19.9099 29.4196 19.7414 28.3917 19.7077V18.3596H27.2627V19.7498C26.3696 19.8172 25.6197 20.1205 25.072 20.6935C24.8024 20.9631 24.5918 21.2664 24.4233 21.6119C24.2885 21.9489 24.1789 22.3196 24.2211 22.6903C24.2211 23.4655 24.4654 24.1058 24.9457 24.5861C25.3922 25.0579 26.1758 25.5297 27.3132 25.9341V28.6387C26.8667 28.605 26.319 28.4702 25.7377 28.268C25.1226 28.0321 24.7097 27.8636 24.398 27.6277V29.6919C25.2911 30.1637 26.2432 30.3996 27.2374 30.3996V31.9584H28.3664V30.3659C29.3943 30.2648 30.1442 29.9278 30.6918 29.4476C31.2058 28.942 31.4838 28.3017 31.4838 27.4507C31.4417 26.6671 31.2395 26.0942 30.7592 25.6224ZM27.2627 23.8278C26.5802 23.4907 26.2348 23.0526 26.2348 22.505C26.2348 21.932 26.5802 21.5613 27.2627 21.4265V23.8278ZM28.358 28.5966V26.3301C29.0826 26.6334 29.4533 27.0042 29.4533 27.5181C29.4196 28.1248 29.0741 28.4618 28.358 28.5966Z" fill="#50E6FF"/>
</svg>
